<?xml version="1.0" standalone="no"?>
<!DOCTYPE svg PUBLIC "-//W3C//DTD SVG 20010904//EN"
 "http://www.w3.org/TR/2001/REC-SVG-20010904/DTD/svg10.dtd">
<svg version="1.0" xmlns="http://www.w3.org/2000/svg"
 width="700.000000pt" height="700.000000pt" viewBox="0 0 700.000000 700.000000"
 preserveAspectRatio="xMidYMid meet">
<metadata>
Created by potrace 1.11, written by Peter Selinger 2001-2013
</metadata>
<g transform="translate(0.000000,700.000000) scale(0.100000,-0.100000)"
fill="#000000" stroke="none">
<path d="M3249 6996 c-2 -2 -29 -7 -59 -10 -178 -21 -375 -93 -540 -199 -73
-46 -206 -156 -262 -215 -160 -170 -304 -450 -343 -667 -22 -124 -24 -152 -24
-401 l-1 -231 -502 -1 c-305 0 -513 -4 -528 -10 -54 -21 -85 -67 -96 -141 -6
-38 -11 -70 -19 -111 -5 -28 -53 -319 -61 -365 -2 -16 -6 -41 -9 -55 -3 -14
-7 -38 -9 -55 -6 -37 -14 -84 -22 -127 -3 -18 -7 -44 -9 -58 -2 -14 -19 -117
-38 -230 -33 -192 -42 -241 -53 -315 -3 -16 -7 -41 -10 -55 -11 -63 -27 -157
-29 -175 -4 -23 -17 -104 -39 -225 -8 -47 -17 -98 -19 -115 -7 -43 -36 -216
-41 -245 -3 -14 -16 -95 -31 -180 -14 -85 -27 -166 -30 -180 -2 -14 -16 -95
-30 -180 -30 -177 -33 -196 -39 -230 -3 -14 -8 -41 -10 -60 -3 -19 -24 -143
-46 -275 -23 -132 -43 -256 -46 -275 -4 -30 -16 -100 -28 -165 -6 -33 -19
-109 -21 -125 -4 -22 -25 -151 -31 -180 -2 -14 -7 -41 -10 -60 -7 -44 -13 -79
-18 -105 -5 -28 -14 -84 -20 -120 -8 -50 -57 -347 -61 -365 -4 -21 -14 -81
-21 -130 -3 -19 -7 -42 -9 -50 -10 -37 -20 -119 -20 -167 0 -60 22 -96 75
-124 34 -18 143 -19 3357 -19 1918 0 3332 4 3345 9 42 16 86 66 93 105 5 24 0
77 -14 149 -12 62 -23 121 -25 132 -3 19 -12 68 -20 110 -2 11 -6 36 -10 55
-3 19 -8 44 -10 55 -10 52 -68 363 -72 385 -5 26 -21 114 -74 400 -31 166 -43
229 -60 330 -6 30 -12 66 -15 80 -7 30 -10 43 -35 180 -10 58 -29 156 -40 217
-12 62 -23 125 -26 140 -2 16 -13 73 -24 128 -11 55 -21 111 -24 125 -15 92
-48 272 -56 310 -9 44 -44 234 -55 295 -2 17 -7 41 -10 55 -3 14 -9 50 -15 80
-6 30 -12 66 -15 80 -3 14 -12 61 -20 105 -8 44 -21 116 -29 160 -9 44 -18 94
-21 110 -24 132 -40 215 -70 380 -20 105 -38 205 -41 224 -8 47 -12 70 -18 89
-3 9 -7 35 -11 57 -4 33 -19 113 -51 280 -2 11 -8 45 -14 75 -6 30 -12 66 -15
80 -3 14 -8 39 -10 55 -3 17 -10 57 -16 90 -6 32 -20 72 -31 88 -43 60 -37 59
-670 59 l-578 0 0 42 c-1 180 -10 497 -14 521 -4 17 -11 55 -17 85 -49 249
-192 507 -384 693 -204 199 -454 324 -750 373 -38 7 -320 15 -326 10z m313
-311 c378 -66 697 -341 822 -707 45 -132 53 -208 52 -465 l-1 -238 -1057 -1
c-779 -1 -1058 1 -1059 10 -4 50 0 442 5 481 57 418 334 755 728 885 34 11 77
23 93 26 17 3 48 9 70 13 73 14 258 12 347 -4z m-1544 -2036 l2 -325 -44 -46
c-161 -168 -43 -449 189 -447 239 1 358 279 193 450 l-41 42 -1 311 c-1 171 2
318 5 326 6 13 133 15 1061 15 l1053 -1 3 -327 2 -327 -34 -31 c-137 -120 -99
-354 71 -434 48 -23 66 -26 122 -23 77 5 125 25 177 76 81 79 102 201 51 305
-16 31 -42 68 -59 82 l-30 25 -1 320 c0 176 3 324 7 328 4 4 225 7 492 7 l484
0 5 -25 c3 -14 7 -36 10 -50 3 -14 7 -36 10 -50 11 -52 16 -78 35 -175 11 -55
22 -111 24 -125 9 -40 25 -123 30 -150 2 -14 14 -74 26 -135 12 -60 24 -119
26 -130 2 -11 6 -31 9 -45 3 -14 7 -34 9 -45 2 -11 14 -69 26 -130 12 -60 24
-121 26 -135 3 -14 16 -81 30 -150 14 -69 28 -136 30 -150 3 -14 9 -48 15 -76
5 -28 12 -61 14 -75 3 -13 48 -240 100 -504 52 -264 98 -493 101 -510 3 -16
14 -73 24 -125 11 -52 22 -113 26 -135 3 -22 8 -43 10 -46 2 -3 6 -21 9 -40 3
-19 33 -171 66 -339 33 -168 63 -316 65 -330 2 -14 7 -36 10 -50 3 -14 8 -36
10 -50 3 -14 16 -81 29 -150 14 -69 27 -136 30 -150 3 -14 9 -47 15 -75 6 -27
12 -59 14 -70 2 -11 23 -116 46 -234 23 -117 39 -215 36 -218 -3 -3 -1416 -6
-3141 -7 l-3137 -1 6 45 c8 56 15 101 21 120 3 8 7 33 11 55 3 22 23 137 44
255 22 118 41 229 44 245 3 17 8 41 11 55 2 14 7 39 10 55 2 17 7 41 9 55 3
14 8 42 11 62 2 21 9 57 14 80 8 36 20 104 36 203 5 26 83 462 90 495 4 24 47
263 65 365 15 89 50 279 54 301 2 12 7 39 10 60 4 22 22 125 41 229 61 337 75
418 95 530 10 61 21 124 24 140 10 51 16 83 51 283 19 105 51 279 70 385 19
105 53 295 75 422 23 126 43 232 45 235 2 3 187 5 412 5 l408 0 3 -326z"/>
</g>
</svg>
